<svg width="90" height="90" viewBox="0 0 90 90" fill="none" xmlns="http://www.w3.org/2000/svg">
<g clip-path="url(#clip0_841_3969)">
<path d="M0 45C0 20.1472 20.1472 0 45 0C69.8528 0 90 20.1472 90 45C90 69.8528 69.8528 90 45 90C20.1472 90 0 69.8528 0 45Z" fill="white"/>
<path d="M113.177 -5.71912H-8.72949V116.187H113.177V-5.71912Z" fill="#FDD835"/>
<path d="M9.93262 87.9684C16.2209 76.3137 17.8039 75.0935 17.4644 61.8588C17.4106 59.8755 14.1035 56.3391 15.7436 43.1952C16.1469 39.9883 21.5076 32.9222 24.1795 31.0935C34.5714 24.0442 45.4977 27.2814 58.0608 27.4495C60.3664 27.4764 62.7459 27.547 64.8935 26.7099C69.908 24.7535 71.9312 18.7328 76.1156 15.3511C72.487 21.3403 68.0046 26.7681 62.8097 31.4632L67.3469 30.2598L66.8596 31.3153L64.7624 35.9005L60.4504 45.313C58.4977 49.5823 56.5148 54.4532 58.2423 58.82C58.9783 60.6823 60.326 62.232 61.6771 63.7111C70.8671 73.7745 81.3556 82.5695 92.8663 89.8643C93.5116 90.2745 94.1939 90.7115 94.5467 91.3872C95.6827 93.5251 92.9907 95.6362 90.7288 96.4968C68.5636 104.921 42.9165 103.687 21.6622 93.1789C19.1314 91.9284 16.3553 90.1064 16.1234 87.2927" fill="#414141"/>
<path d="M39.7319 43.04C39.7326 43.7547 39.5212 44.4535 39.1246 45.048C38.7279 45.6426 38.1639 46.1061 37.5037 46.3799C36.8436 46.6537 36.117 46.7255 35.416 46.5862C34.715 46.447 34.0711 46.1029 33.5658 45.5975C33.0604 45.0922 32.7163 44.4483 32.5771 43.7473C32.4378 43.0463 32.5096 42.3197 32.7834 41.6596C33.0572 40.9994 33.5207 40.4353 34.1152 40.0387C34.7098 39.6421 35.4086 39.4307 36.1233 39.4314C37.0803 39.4314 37.9982 39.8116 38.675 40.4883C39.3517 41.1651 39.7319 42.0829 39.7319 43.04Z" fill="#212121"/>
<path d="M6.01953 42.1065C6.01953 42.1065 15.3289 39.2271 17.4343 39.8104C19.6002 41.2146 21.9747 46.2002 16.5531 49.3645C12.6967 47.4988 9.14478 45.0514 6.01953 42.1065Z" fill="#414141"/>
<path d="M19.2637 46.1303C18.8369 47.2742 17.9403 48.4044 16.3158 49.3645C12.5513 47.5009 9.08045 45.0656 6.01953 42.1404L19.2637 46.1303Z" fill="#212121"/>
<path d="M34.6154 31.0033C30.7778 32.547 26.8611 34.1395 23.7793 36.8012C25.9506 37.487 28.3041 36.4762 30.1937 35.2542C31.5475 34.3824 32.8127 33.3935 33.9729 32.3" fill="#3063BA"/>
<path d="M17.4577 73.2599C17.4577 73.2599 18.2023 70.3562 19.1347 67.7176C19.2651 67.3424 19.4932 67.0089 19.7956 66.7516C20.0979 66.4943 20.4635 66.3225 20.8544 66.2541C21.2453 66.1856 21.6474 66.2229 22.0191 66.3622C22.3908 66.5015 22.7185 66.7376 22.9684 67.0462C25.8965 70.7389 30.4278 74.0522 33.0976 74.5994C36.5255 75.3043 35.8211 68.0869 35.8211 68.0869C35.8211 68.0869 37.0521 78.47 52.0011 78.47C66.9501 78.47 71.2668 74.6464 71.2668 74.6464C71.2668 74.6464 82.2748 84.3212 87.6178 87.9232C92.9608 91.5252 9.93262 90.602 9.93262 90.602L17.4577 73.2599Z" fill="#3063BA"/>
<path fill-rule="evenodd" clip-rule="evenodd" d="M21.7917 66.9682C21.5281 66.8694 21.243 66.8429 20.9657 66.8915C20.6885 66.94 20.4292 67.0618 20.2147 67.2444C20.0002 67.4269 19.8383 67.6636 19.7457 67.9299L19.7446 67.9332C19.2845 69.2353 18.8692 70.6071 18.5683 71.6565C18.4181 72.1805 18.2968 72.6225 18.2132 72.9332C18.1714 73.0885 18.139 73.2109 18.1172 73.2942C18.1063 73.3358 18.098 73.3677 18.0924 73.389L18.0862 73.413L18.0843 73.4206C18.0843 73.4206 18.0843 73.4206 18.0843 73.4206M20.7425 65.6165C21.2471 65.5282 21.7661 65.5764 22.2459 65.7561C22.7256 65.9359 23.1486 66.2407 23.471 66.6389L23.4752 66.644C24.9004 68.4413 26.723 70.1542 28.5149 71.4824C30.3241 72.8233 32.0325 73.7205 33.2273 73.9653L33.2277 73.9654C33.5471 74.0311 33.7758 73.9976 33.9476 73.9253C34.1232 73.8515 34.2889 73.7161 34.4439 73.5009C34.7678 73.0513 34.9826 72.3405 35.1043 71.5133C35.2233 70.7037 35.2424 69.8624 35.2303 69.2156C35.2243 68.8941 35.2106 68.6249 35.1986 68.4369C35.1926 68.3431 35.187 68.2697 35.1829 68.2206C35.1809 68.196 35.1793 68.1775 35.1782 68.1655L35.177 68.1525L35.1768 68.1498L35.1767 68.1494C35.1424 67.7964 35.3986 67.4815 35.7513 67.4434C36.1035 67.4053 36.4208 67.6575 36.4633 68.009C36.4633 68.0092 36.4634 68.0097 36.4634 68.0098C36.4634 68.0101 36.4635 68.0103 36.4635 68.0106L36.4635 68.0109C36.4637 68.0122 36.464 68.0142 36.4643 68.0168C36.4647 68.0192 36.4651 68.0222 36.4656 68.0257C36.4677 68.0404 36.4712 68.0644 36.4767 68.0971C36.4876 68.1626 36.506 68.2629 36.5348 68.3931C36.5925 68.6536 36.6917 69.0326 36.8559 69.4908C37.1846 70.4076 37.7713 71.6346 38.8009 72.8626C40.8406 75.2954 44.6953 77.8227 52.0008 77.8227C59.421 77.8227 64.1683 76.8737 67.0399 75.9425C68.4755 75.477 69.4427 75.0158 70.0415 74.6795C70.341 74.5113 70.5487 74.3741 70.6771 74.283C70.7413 74.2374 70.7857 74.2032 70.8119 74.1825C70.825 74.1721 70.8335 74.165 70.8377 74.1615L70.8381 74.1612C70.8378 74.1615 70.8374 74.1619 71.2665 74.6463L70.8374 74.1619C70.8383 74.161 70.8393 74.1602 70.8402 74.1594C71.0844 73.9455 71.4496 73.9457 71.6937 74.1602L71.2665 74.6463C71.6937 74.1602 71.6936 74.1602 71.6937 74.1602L71.6942 74.1606L71.6956 74.1619L71.8177 74.269C71.8994 74.3404 72.0199 74.4458 72.1753 74.5813C72.486 74.8523 72.9361 75.2436 73.4929 75.7245C74.6068 76.6863 76.1473 78.0062 77.8543 79.4382C81.277 82.3095 85.34 85.6073 87.9792 87.3865C88.1751 87.5186 88.5136 87.7967 88.5119 88.2502C88.5101 88.7163 88.1542 88.9829 87.9615 89.0999C87.5313 89.3612 86.8 89.551 85.9291 89.7091C84.1285 90.0362 81.2895 90.2972 77.7718 90.5073C70.7226 90.9283 60.8317 91.1507 50.7856 91.2604C40.7366 91.3702 30.5216 91.3673 22.8194 91.337C18.9682 91.3219 15.7449 91.2999 13.4843 91.2817C12.354 91.2726 11.4643 91.2644 10.8572 91.2585C10.5536 91.2556 10.3207 91.2532 10.1636 91.2516L9.9261 91.249C9.92545 91.249 9.92512 91.249 9.93232 90.6019L10.526 90.8595L10.9143 89.9647C11.5194 89.9705 12.3925 89.9785 13.4947 89.9874C15.7538 90.0056 18.9754 90.0276 22.8245 90.0427C30.5232 90.073 40.7313 90.0758 50.7715 89.9662C60.8145 89.8565 70.6789 89.6343 77.6947 89.2153C81.2095 89.0054 83.9805 88.7476 85.6978 88.4357C86.1924 88.3458 86.5681 88.2565 86.8382 88.174C86.9808 88.2729 87.12 88.3682 87.2557 88.4597C87.2748 88.4726 87.2879 88.4825 87.2963 88.4894C87.3031 88.4972 87.3077 88.501 87.3083 88.5009C87.3089 88.5009 87.3055 88.497 87.2963 88.4894C87.2881 88.4803 87.2769 88.4656 87.2654 88.4453C87.2418 88.4033 87.2172 88.3371 87.2176 88.2452C87.2182 88.0898 87.2883 88.0035 87.3174 87.9756C87.3268 87.9689 87.3304 87.9655 87.3299 87.9654C87.3294 87.9654 87.3247 87.9687 87.3174 87.9756C87.311 87.9801 87.3019 87.9862 87.2896 87.9937C87.2014 88.0473 87.0532 88.1085 86.8382 88.174C84.1409 86.3028 80.268 83.1525 77.0224 80.4298C75.3095 78.9928 73.7641 77.6688 72.647 76.7041C72.0884 76.2217 71.6367 75.829 71.3246 75.5568C71.291 75.5275 71.259 75.4996 71.2287 75.4732C71.0821 75.5694 70.8989 75.6825 70.6753 75.808C69.9977 76.1886 68.9514 76.6833 67.4391 77.1737C64.4152 78.1543 59.5296 79.1171 52.0008 79.1171C44.3572 79.1171 40.122 76.4529 37.809 73.6941C37.2164 72.9873 36.755 72.2802 36.3965 71.6198C36.5193 70.7399 36.5368 69.8553 36.5244 69.1914C36.5179 68.8473 36.5033 68.5582 36.4902 68.3541C36.4837 68.252 36.4775 68.171 36.4729 68.1148C36.4706 68.0866 36.4687 68.0647 36.4673 68.0494L36.4657 68.0315L36.4652 68.0264L36.465 68.0248L36.465 68.0243C36.465 68.0241 36.4649 68.0239 35.8208 68.0868C35.1782 68.163 35.1782 68.1635 35.1783 68.164L35.1785 68.1652L35.1789 68.1685L35.18 68.1777C35.181 68.1852 35.1823 68.1951 35.1841 68.2074C35.1876 68.2321 35.1927 68.2664 35.1999 68.3097C35.2144 68.3963 35.237 68.5191 35.2711 68.6728C35.3391 68.9801 35.4528 69.4122 35.6376 69.9276C35.816 70.4253 36.0613 71.0022 36.3965 71.6198C36.3927 71.6471 36.3888 71.6743 36.3848 71.7016C36.2541 72.5906 36.0023 73.552 35.4941 74.2574C35.2331 74.6197 34.8915 74.9325 34.4495 75.1184C34.0037 75.3059 33.5046 75.3438 32.967 75.2332C32.9671 75.2332 32.9673 75.2333 32.9674 75.2333L33.0974 74.5993L32.967 75.2332C31.492 74.9308 29.6 73.8977 27.7442 72.5222C25.872 71.1345 23.9659 69.3454 22.4633 67.4511C22.4639 67.4519 22.4646 67.4526 22.4652 67.4534L22.9681 67.0461L22.461 67.4482C22.4618 67.4492 22.4626 67.4502 22.4633 67.4511C22.2862 67.2333 22.0544 67.0666 21.7917 66.9682M10.9143 89.9647C10.8993 89.9646 10.8844 89.9644 10.8697 89.9643C10.5665 89.9613 10.3339 89.959 10.1771 89.9573L9.94043 89.9548C9.93981 89.9548 9.93951 89.9548 9.93232 90.6019L9.92512 91.249C9.70835 91.2466 9.50719 91.1358 9.38927 90.9539C9.27136 90.772 9.25235 90.5432 9.33864 90.3443L16.8436 73.0487C16.8491 73.0275 16.8563 72.9997 16.8652 72.9657C16.8877 72.88 16.9208 72.7549 16.9634 72.5967C17.0485 72.2805 17.1717 71.8316 17.3242 71.2998C17.6286 70.2381 18.0517 68.8394 18.5237 67.5034C18.692 67.0201 18.9861 66.5904 19.3758 66.2587C19.766 65.9266 20.2378 65.7049 20.7425 65.6165" fill="#20469B"/>
</g>
<defs>
<clipPath id="clip0_841_3969">
<path d="M0 45C0 20.1472 20.1472 0 45 0C69.8528 0 90 20.1472 90 45C90 69.8528 69.8528 90 45 90C20.1472 90 0 69.8528 0 45Z" fill="white"/>
</clipPath>
</defs>
</svg>
