<svg width="90" height="90" viewBox="0 0 90 90" fill="none" xmlns="http://www.w3.org/2000/svg">
<g clip-path="url(#clip0_152_573)">
<path d="M0 45C0 20.1472 20.1472 0 45 0C69.8528 0 90 20.1472 90 45C90 69.8528 69.8528 90 45 90C20.1472 90 0 69.8528 0 45Z" fill="#D84315"/>
<g clip-path="url(#clip1_152_573)">
<path d="M-47.5095 105.916L-8.50952 67.1328L9.50848 85.0504L-18.4545 112.858C-22.3074 116.689 -27.5331 118.842 -32.982 118.842C-38.4309 118.842 -43.6566 116.689 -47.5095 112.858C-48.4352 111.937 -48.9553 110.689 -48.9553 109.387C-48.9553 108.085 -48.4353 106.836 -47.5095 105.916Z" fill="#03A242"/>
<path d="M44.4604 14.501L-26.6749 85.24C-23.1125 93.4518 -17.6158 100.691 -10.6487 106.346C-3.6817 112.001 4.55121 115.907 13.3551 117.733C22.159 119.559 31.2756 119.253 39.9352 116.839C48.5949 114.425 56.5435 109.975 63.1102 103.865C69.6769 97.7539 74.6691 90.162 77.6652 81.7296C80.6613 73.2972 81.5736 64.2717 80.3249 55.4151C79.0762 46.5584 75.7032 38.1304 70.4907 30.8424C65.2782 23.5544 58.3791 17.6204 50.3757 13.5412C49.414 13.0601 48.3239 12.8938 47.2614 13.0662C46.1989 13.2386 45.2185 13.7408 44.4604 14.501Z" fill="white"/>
<path d="M29.0448 57.5834C31.4359 57.5834 33.3744 55.6558 33.3744 53.2779C33.3744 50.9 31.4359 48.9724 29.0448 48.9724C26.6536 48.9724 24.7151 50.9 24.7151 53.2779C24.7151 55.6558 26.6536 57.5834 29.0448 57.5834Z" fill="#212121"/>
<path d="M64.9915 57.5834C67.3827 57.5834 69.3211 55.6558 69.3211 53.2779C69.3211 50.9 67.3827 48.9724 64.9915 48.9724C62.6004 48.9724 60.6619 50.9 60.6619 53.2779C60.6619 55.6558 62.6004 57.5834 64.9915 57.5834Z" fill="#212121"/>
<path d="M49.2999 75.5408L58.1361 67.2167H35.6568L44.493 75.5408C45.1465 76.147 46.0051 76.4838 46.8965 76.4838C47.7879 76.4838 48.6463 76.147 49.2999 75.5408Z" fill="#B04121"/>
<path d="M44.5139 60.0614L35.6568 67.2167H58.1361L49.279 60.0614C48.6269 59.5544 47.7774 59.2734 46.8964 59.2734C46.0153 59.2734 45.1659 59.5544 44.5139 60.0614Z" fill="#C84E29"/>
</g>
</g>
<defs>
<clipPath id="clip0_152_573">
<path d="M0 45C0 20.1472 20.1472 0 45 0C69.8528 0 90 20.1472 90 45C90 69.8528 69.8528 90 45 90C20.1472 90 0 69.8528 0 45Z" fill="white"/>
</clipPath>
<clipPath id="clip1_152_573">
<rect width="132" height="106" fill="white" transform="translate(-51 13)"/>
</clipPath>
</defs>
</svg>
