<svg width="40" height="40" viewBox="0 0 40 40" fill="none" xmlns="http://www.w3.org/2000/svg">
<path d="M0 20C0 8.95431 8.95431 0 20 0C31.0457 0 40 8.95431 40 20C40 31.0457 31.0457 40 20 40C8.95431 40 0 31.0457 0 20Z" fill="#FBE9E7"/>
<path d="M11 15.8462C10.4477 15.8462 10 16.2939 10 16.8462V27C10 27.5523 10.4477 28 11 28H29C29.5523 28 30 27.5523 30 27V16.8462C30 16.2939 29.5523 15.8462 29 15.8462H24.8577L22.8843 14.2269C22.7055 14.0802 22.4813 14 22.25 14H20H17.75C17.5187 14 17.2945 14.0802 17.1157 14.2269L15.1423 15.8462H11Z" stroke="#D84315" stroke-width="2" stroke-linejoin="round"/>
<circle cx="20" cy="21" r="3" stroke="#D84315" stroke-width="2"/>
<circle cx="27" cy="19" r="0.5" stroke="#D84315"/>
</svg>
