<svg width="628" height="452" viewBox="0 0 628 452" fill="none" xmlns="http://www.w3.org/2000/svg">
<path d="M5.55045 2.06575C4.91178 0.841635 3.40169 0.367035 2.17757 1.00571C0.953451 1.64438 0.478852 3.15446 1.11752 4.37858L5.55045 2.06575ZM54.6673 54.4999L55.9974 52.3831L54.6673 54.4999ZM224.501 103.111L224.587 105.61L224.501 103.111ZM386.778 79.9999L387.252 82.4547L386.778 79.9999ZM557.112 85.3333L556.189 87.6566L557.112 85.3333ZM611.667 116.444L613.242 114.502L611.667 116.444ZM660.834 180.944L658.614 182.094L660.834 180.944ZM669.723 314.555L667.345 313.784L669.723 314.555ZM596.501 384L594.719 382.246L596.501 384ZM568.501 449V451.5H573.501V449H568.501ZM1.11752 4.37858C13.168 27.4753 31.9435 43.1747 53.3373 56.6168L55.9974 52.3831C34.9501 39.1588 17.0153 24.0401 5.55045 2.06575L1.11752 4.37858ZM53.3373 56.6168C104.331 88.6568 163.964 107.713 224.587 105.61L224.414 100.613C164.947 102.676 106.288 83.9814 55.9974 52.3831L53.3373 56.6168ZM224.587 105.61C279.604 103.7 333.639 92.8011 387.252 82.4547L386.305 77.5452C332.585 87.9123 278.962 98.7197 224.414 100.613L224.587 105.61ZM387.252 82.4547C444.646 71.3786 500.931 65.7006 556.189 87.6566L558.035 83.01C501.374 60.4963 443.876 66.435 386.305 77.5452L387.252 82.4547ZM556.189 87.6566C575.608 95.3727 593.934 105.288 610.093 118.386L613.242 114.502C596.605 101.017 577.811 90.8678 558.035 83.01L556.189 87.6566ZM610.093 118.386C630.591 135.002 646.426 158.559 658.614 182.094L663.054 179.795C650.718 155.974 634.5 131.735 613.242 114.502L610.093 118.386ZM658.614 182.094C678.907 221.281 680.862 272.107 667.345 313.784L672.101 315.327C685.976 272.545 684.038 220.316 663.054 179.795L658.614 182.094ZM667.345 313.784C663.852 324.553 659.638 332.062 654.854 337.799C650.068 343.539 644.62 347.616 638.487 351.428C626.274 359.021 611.068 365.634 594.719 382.246L598.282 385.754C614.076 369.706 628.337 363.625 641.127 355.675C647.496 351.715 653.434 347.309 658.694 341.001C663.957 334.69 668.449 326.587 672.101 315.327L667.345 313.784ZM594.719 382.246C583.767 393.374 577.229 407.278 573.425 419.706C569.623 432.13 568.501 443.252 568.501 449H573.501C573.501 443.748 574.549 433.119 578.206 421.169C581.863 409.222 588.074 396.126 598.282 385.754L594.719 382.246Z" fill="#FBE9E7"/>
</svg>
