<svg width="200" height="200" viewBox="0 0 200 200" fill="none" xmlns="http://www.w3.org/2000/svg">
<rect width="200" height="200" fill="#E0E0E0"/>
<path fill-rule="evenodd" clip-rule="evenodd" d="M91.832 136.036C92.6342 136.219 93.1414 137.04 92.9649 137.869L88.9402 156.792C88.7637 157.622 87.9702 158.146 87.168 157.964C86.3658 157.781 85.8586 156.96 86.0351 156.131L90.0598 137.208C90.2363 136.378 91.0298 135.854 91.832 136.036Z" fill="#F5F5F5"/>
<path fill-rule="evenodd" clip-rule="evenodd" d="M109.676 136.251C110.367 135.786 111.293 135.986 111.744 136.697L123.756 155.619C124.208 156.33 124.014 157.284 123.324 157.749C122.633 158.214 121.707 158.014 121.256 157.303L109.244 138.381C108.792 137.67 108.986 136.716 109.676 136.251Z" fill="#F5F5F5"/>
<path fill-rule="evenodd" clip-rule="evenodd" d="M80.4507 157.546C79.8619 158.183 78.9423 158.145 78.3935 157.46C77.843 156.774 77.8739 155.696 78.4625 155.054L79.4592 156.297C78.4625 155.054 78.4631 155.053 78.4637 155.053L78.4651 155.051L78.4682 155.048L78.4759 155.04L78.4975 155.017C78.5145 154.999 78.537 154.975 78.5646 154.947C78.6199 154.891 78.6963 154.816 78.7929 154.727C78.9858 154.547 79.2608 154.308 79.6102 154.045C80.306 153.522 81.3154 152.893 82.5737 152.471C85.1492 151.609 88.6486 151.666 92.4116 154.931C93.0582 155.493 93.1925 156.559 92.7115 157.313C92.2306 158.068 91.3165 158.225 90.6698 157.663C87.7033 155.089 85.162 155.147 83.3791 155.744C82.4581 156.052 81.709 156.518 81.191 156.907C80.9335 157.101 80.7378 157.272 80.6117 157.389C80.5488 157.448 80.5037 157.492 80.4773 157.519C80.4641 157.532 80.4556 157.541 80.452 157.545C80.4515 157.546 80.4511 157.546 80.4507 157.546C80.4507 157.546 80.4507 157.546 80.4507 157.546Z" fill="#F5F5F5"/>
<path fill-rule="evenodd" clip-rule="evenodd" d="M118.927 156.61C118.926 157.355 118.306 157.972 117.517 157.999C116.709 158.027 116.03 157.427 116.001 156.659L117.438 156.609C116.001 156.659 116.001 156.657 116.001 156.656L116.001 156.652L116.001 156.645L116 156.63C116 156.619 116 156.607 116 156.594C116 156.567 116.001 156.535 116.002 156.499C116.005 156.427 116.013 156.336 116.027 156.23C116.057 156.018 116.118 155.741 116.242 155.428C116.494 154.788 116.994 154.036 117.931 153.399C119.771 152.149 123.026 151.515 128.781 152.441C129.578 152.57 130.114 153.288 129.979 154.046C129.844 154.804 129.089 155.314 128.292 155.186C122.798 154.301 120.516 155.063 119.632 155.664C119.207 155.953 119.048 156.239 118.982 156.406C118.946 156.496 118.933 156.565 118.928 156.598C118.928 156.603 118.927 156.607 118.927 156.61Z" fill="#F5F5F5"/>
<path d="M70.1109 127.595C70.1109 127.595 41.8366 144.174 46.5246 148.713C51.2126 153.251 72.5647 161.755 85.5912 138.154C98.6177 114.552 70.1109 127.595 70.1109 127.595Z" fill="#F5F5F5"/>
<path d="M121.491 42.2395C113.113 41.3862 98.3754 42.1389 89.446 56.0098C83.3078 65.5444 79.4617 70.3052 77.8903 93.0763C76.3188 115.847 66.76 116.421 69.4861 125.373C71.101 130.659 73.1629 137.573 87.345 142.32C101.527 147.068 122.542 147.085 135.148 129.079C147.754 111.073 141.551 101.657 140.926 96.2618C140.557 92.9406 137.249 78.7765 138.821 74.5627C140.392 70.3489 144.868 44.6243 121.491 42.2395Z" fill="#F5F5F5"/>
<path d="M80.2716 74C80.2716 74 60.7802 102.491 60.0019 121.662C59.9774 122.251 60.1856 122.825 60.581 123.26C60.9765 123.695 61.5272 123.956 62.1132 123.985C68.8941 124.417 84.2361 115.515 86.528 106.32C89.1079 95.9599 80.2716 74 80.2716 74Z" fill="#F5F5F5"/>
<path fill-rule="evenodd" clip-rule="evenodd" d="M120.648 53.0008C121.42 53.0265 122.025 53.6733 121.999 54.4454L120.601 54.3988C121.999 54.4454 121.999 54.4462 121.999 54.447L121.999 54.4488L121.999 54.4528L121.999 54.463L121.997 54.4909C121.996 54.5129 121.994 54.5416 121.992 54.5766C121.987 54.6467 121.979 54.7422 121.966 54.8599C121.939 55.0949 121.892 55.4205 121.807 55.8101C121.639 56.586 121.321 57.6364 120.712 58.735C119.466 60.9835 117.058 63.3246 112.604 63.9847C111.84 64.098 111.129 63.5703 111.015 62.8061C110.902 62.0419 111.43 61.3306 112.194 61.2173C115.709 60.6963 117.402 58.9363 118.265 57.379C118.71 56.5747 118.948 55.796 119.073 55.2185C119.135 54.9314 119.168 54.6993 119.186 54.5457C119.194 54.4691 119.199 54.4126 119.201 54.3793C119.202 54.3626 119.203 54.3517 119.203 54.3471M119.203 54.3455C119.203 54.3455 119.203 54.3454 119.203 54.3454C119.233 53.5766 119.878 52.9752 120.648 53.0008" fill="#F5F5F5"/>
<path d="M120.174 57C119.724 58.0973 119.035 59.1029 118.146 59.9578C117.258 60.8128 116.188 61.4999 115 61.9788C115.103 62.8365 115.477 63.6497 116.08 64.3216C116.683 64.9935 117.488 65.4958 118.399 65.7688C119.311 66.0417 120.29 66.0737 121.222 65.8611C122.153 65.6485 122.997 65.2001 123.652 64.5693C124.308 63.9386 124.747 63.152 124.919 62.3033C125.091 61.4545 124.988 60.5794 124.621 59.7819C124.255 58.9844 123.641 58.2983 122.852 57.8051C122.064 57.3119 121.134 57.0324 120.174 57Z" fill="#F5F5F5"/>
<path d="M154 62.5752C154 62.5752 142.451 57.5276 139.679 58.036C136.749 59.6474 133.122 66.0568 139.679 71C144.828 68.9794 149.657 66.1386 154 62.5752Z" fill="#F5F5F5"/>
<path d="M136 66.4894C136.436 68.0103 137.495 69.5703 139.517 71C144.72 69.0724 149.602 66.3756 154 63L136 66.4894Z" fill="#F5F5F5"/>
</svg>
