<svg width="150" height="32" viewBox="0 0 150 32" fill="none" xmlns="http://www.w3.org/2000/svg">
<g clip-path="url(#clip0_475_3188)">
<g clip-path="url(#clip1_475_3188)">
<path d="M49.356 31.7515C49.0537 31.7699 48.7508 31.7288 48.4645 31.6307C48.1782 31.5326 47.9142 31.3794 47.6876 31.1798C47.4725 30.952 47.3077 30.6822 47.2036 30.3876C47.0994 30.093 47.0583 29.78 47.0828 29.4687V13.4107C47.0616 13.1036 47.1028 12.7953 47.2038 12.5042C47.3048 12.2132 47.4637 11.9452 47.6709 11.7163C47.8955 11.5129 48.1589 11.3564 48.4455 11.256C48.7321 11.1557 49.036 11.1136 49.3393 11.1321C49.6394 11.1142 49.94 11.1568 50.2232 11.2571C50.5063 11.3575 50.7661 11.5137 50.9869 11.7163C51.1942 11.9452 51.353 12.2132 51.454 12.5042C51.5551 12.7953 51.5962 13.1036 51.575 13.4107V15.4532L51.2413 14.2849C51.5402 13.307 52.1923 12.4734 53.0724 11.9441C54.0163 11.3525 55.114 11.0486 56.2299 11.07C57.4353 11.0473 58.6215 11.371 59.646 12.0021C60.6509 12.6414 61.4454 13.5588 61.9318 14.6412C63.0102 17.2706 63.0102 20.2148 61.9318 22.8442C61.4618 23.9419 60.6666 24.8716 59.6518 25.5095C58.637 26.1474 57.4508 26.4634 56.2508 26.4154C55.1552 26.4401 54.0754 26.1526 53.1392 25.5868C52.2874 25.0982 51.6428 24.3196 51.3248 23.3952H51.6584V29.4729C51.6828 29.7831 51.6428 30.0951 51.541 30.3894C51.4391 30.6837 51.2775 30.9541 51.0662 31.1839C50.8331 31.3861 50.5619 31.5404 50.2683 31.6379C49.9748 31.7353 49.6647 31.7739 49.356 31.7515ZM54.8868 23.0513C55.4884 23.0615 56.0804 22.9005 56.5928 22.5873C57.1141 22.2413 57.5148 21.7434 57.7398 21.1621C58.0401 20.3871 58.1819 19.5604 58.157 18.7302C58.157 17.2678 57.8566 16.1948 57.2518 15.5029C56.9626 15.1655 56.6005 14.8972 56.1925 14.7179C55.7845 14.5386 55.3411 14.4529 54.8952 14.4672C54.2937 14.4548 53.7009 14.6113 53.1851 14.9187C52.6611 15.2546 52.2591 15.7482 52.038 16.3273C51.7406 17.0931 51.5988 17.9098 51.6209 18.7302C51.6209 20.2079 51.924 21.2975 52.5302 21.999C52.8176 22.3394 53.1791 22.6105 53.5872 22.7921C53.9954 22.9736 54.4398 23.0608 54.8868 23.0472V23.0513Z" fill="#212121"/>
<path d="M67.1832 8.70023C66.4954 8.74665 65.8156 8.53195 65.2812 8.09951C65.0523 7.879 64.8741 7.6119 64.7589 7.31656C64.6437 7.02121 64.5942 6.70462 64.6138 6.38848C64.5966 6.08062 64.6474 5.77274 64.7627 5.48646C64.878 5.20018 65.0549 4.94244 65.2812 4.73131C65.8207 4.30988 66.4983 4.10178 67.1832 4.14715C67.8824 4.10018 68.5749 4.30785 69.1311 4.73131C69.3626 4.9391 69.5443 5.19586 69.6627 5.48267C69.7811 5.76948 69.8332 6.07902 69.8151 6.38848C69.8349 6.7061 69.7838 7.02414 69.6656 7.31991C69.5473 7.61567 69.3648 7.88187 69.1311 8.09951C68.5798 8.53381 67.8852 8.74803 67.1832 8.70023ZM67.1832 26.3491C66.8746 26.3669 66.5659 26.3184 66.2779 26.2069C65.99 26.0954 65.7297 25.9234 65.5148 25.7028C65.0849 25.1982 64.8681 24.548 64.9099 23.8882V13.593C64.8852 13.2659 64.9259 12.9371 65.0297 12.6257C65.1335 12.3142 65.2984 12.0263 65.5148 11.7784C65.7344 11.5661 65.9962 11.4015 66.2835 11.2952C66.5708 11.1889 66.8772 11.1433 67.1832 11.1611C67.4958 11.1405 67.8092 11.1847 68.1036 11.291C68.3981 11.3973 68.667 11.5633 68.8933 11.7784C69.3191 12.2845 69.53 12.9353 69.4814 13.593V23.8882C69.5226 24.543 69.3174 25.1897 68.9058 25.7028C68.6836 25.929 68.4143 26.1041 68.1167 26.2158C67.8191 26.3274 67.5004 26.3729 67.1832 26.3491Z" fill="#212121"/>
<path d="M79.6339 26.407C78.1784 26.444 76.7361 26.1253 75.4336 25.479C74.2671 24.8781 73.305 23.9485 72.6682 22.8068C71.9889 21.5428 71.6511 20.1253 71.688 18.6929C71.671 17.6083 71.8548 16.5297 72.2303 15.5111C72.5717 14.604 73.1133 13.7844 73.8153 13.1124C74.5334 12.4385 75.386 11.9219 76.3179 11.596C78.0241 11.0159 79.8581 10.9127 81.6193 11.2977C82.3432 11.4525 83.0441 11.699 83.7048 12.031C84.0528 12.2169 84.3329 12.5068 84.5057 12.8596C84.6526 13.1704 84.7105 13.5154 84.673 13.8567C84.6354 14.198 84.504 14.5224 84.293 14.7944C84.0945 15.0581 83.8124 15.2478 83.4921 15.333C83.1217 15.4179 82.7327 15.3602 82.4035 15.1714C82.0251 14.9708 81.6248 14.8137 81.2105 14.7032C80.8314 14.5987 80.4403 14.543 80.0468 14.5375C79.4992 14.5274 78.955 14.6246 78.4452 14.8234C77.9983 15.005 77.601 15.2889 77.2856 15.652C76.9547 16.032 76.7075 16.4765 76.5598 16.957C76.3804 17.5295 76.2932 18.1265 76.3012 18.726C76.2387 19.855 76.5882 20.9685 77.2856 21.8622C77.6269 22.2509 78.0531 22.557 78.5316 22.7573C79.0101 22.9577 79.5284 23.0468 80.0468 23.0181C80.4352 23.0149 80.8218 22.9648 81.198 22.869C81.6197 22.7631 82.0251 22.6014 82.4035 22.3884C82.7283 22.1996 83.1151 22.146 83.4796 22.2392C83.7964 22.346 84.0736 22.5449 84.2752 22.8101C84.4768 23.0753 84.5934 23.3946 84.61 23.7265C84.6299 24.0718 84.5625 24.4164 84.4139 24.7291C84.2473 25.0672 83.9627 25.3337 83.6131 25.479C82.9752 25.8308 82.2876 26.085 81.5734 26.233C80.934 26.3524 80.2845 26.4107 79.6339 26.407Z" fill="#212121"/>
<path d="M95.9802 26.4069C94.865 26.4271 93.768 26.1249 92.8227 25.5369C91.9441 25.0069 91.2935 24.1733 90.9957 23.1962L91.3252 22.206V24.0869C91.3469 24.3941 91.306 24.7025 91.205 24.9936C91.1039 25.2847 90.9448 25.5527 90.7371 25.7813C90.5172 25.9855 90.2576 26.1429 89.9744 26.2441C89.6911 26.3452 89.39 26.3879 89.0896 26.3696C88.7859 26.3886 88.4815 26.3463 88.1947 26.2451C87.908 26.144 87.6448 25.9863 87.4211 25.7813C87.2135 25.5527 87.0544 25.2847 86.9534 24.9936C86.8523 24.7025 86.8114 24.3941 86.833 24.0869V6.98901C86.809 6.67776 86.8504 6.36494 86.9545 6.0704C87.0586 5.77587 87.2232 5.50603 87.4378 5.27798C87.897 4.87794 88.4966 4.67398 89.1063 4.7104C89.7293 4.66877 90.3437 4.8727 90.8164 5.27798C91.0259 5.50877 91.1861 5.77943 91.2872 6.07355C91.3883 6.36767 91.4282 6.67912 91.4045 6.98901V14.1024H91.0708C91.3916 13.1795 92.0355 12.4017 92.8852 11.9108C93.8223 11.3469 94.9015 11.0595 95.9968 11.0822C97.2029 11.0535 98.3909 11.3777 99.4129 12.0144C100.405 12.6628 101.19 13.5781 101.678 14.6534C102.257 15.937 102.542 17.3322 102.512 18.7384C102.544 20.1494 102.271 21.5508 101.711 22.8482C101.235 23.9402 100.441 24.8653 99.4296 25.5038C98.3912 26.1281 97.1935 26.4416 95.9802 26.4069ZM94.6204 23.047C95.222 23.0572 95.8139 22.8962 96.3264 22.583C96.8488 22.2372 97.2509 21.7394 97.4775 21.1578C97.7757 20.3822 97.9174 19.5559 97.8947 18.7259C97.8947 17.2635 97.5943 16.1905 96.9895 15.4986C96.7003 15.1612 96.3382 14.8929 95.9302 14.7136C95.5222 14.5343 95.0788 14.4486 94.6329 14.4628C94.0327 14.4499 93.4411 14.6065 92.9269 14.9144C92.4014 15.2496 91.9979 15.7433 91.7757 16.323C91.4783 17.0888 91.3365 17.9055 91.3586 18.7259C91.3586 20.2036 91.6603 21.2932 92.2637 21.9947C92.5508 22.3358 92.912 22.6077 93.3202 22.79C93.7285 22.9723 94.173 23.0602 94.6204 23.047Z" fill="#212121"/>
<path d="M112.356 26.407C110.798 26.4494 109.252 26.1317 107.839 25.4789C106.628 24.8991 105.619 23.9747 104.94 22.8233C104.239 21.5722 103.889 20.1572 103.926 18.726C103.894 17.337 104.233 15.9644 104.91 14.7487C105.554 13.6294 106.487 12.7012 107.613 12.06C108.654 11.5 109.804 11.1687 110.985 11.0886C112.166 11.0086 113.35 11.1816 114.458 11.596C115.313 11.9383 116.082 12.4625 116.711 13.1318C117.34 13.801 117.814 14.599 118.099 15.4696C118.433 16.4716 118.596 17.5216 118.583 18.5768C118.595 18.7374 118.568 18.8984 118.505 19.0467C118.441 19.195 118.344 19.3264 118.22 19.4303C117.91 19.6415 117.536 19.7423 117.161 19.7161H107.705V17.3754H115.288L114.804 17.7897C114.828 17.0817 114.705 16.3765 114.441 15.7182C114.227 15.2096 113.864 14.7766 113.399 14.4753C112.897 14.1723 112.317 14.0211 111.73 14.0403C111.059 14.0195 110.397 14.1968 109.828 14.5499C109.284 14.9126 108.863 15.4294 108.618 16.0331C108.321 16.7727 108.179 17.5651 108.201 18.3614V18.6017C108.201 20.1208 108.553 21.2407 109.257 21.9616C109.96 22.6825 111.028 23.0429 112.46 23.0429C113.014 23.0348 113.566 22.9737 114.108 22.8606C114.718 22.7444 115.312 22.5538 115.876 22.293C116.258 22.087 116.698 22.0127 117.127 22.0817C117.454 22.1497 117.748 22.3248 117.962 22.5789C118.173 22.8266 118.295 23.1371 118.308 23.4613C118.326 23.811 118.249 24.1591 118.083 24.4681C117.887 24.8253 117.585 25.1145 117.219 25.2967C116.486 25.709 115.69 25.9988 114.863 26.1542C114.037 26.3205 113.198 26.4051 112.356 26.407Z" fill="#212121"/>
<path d="M125.682 26.4071C124.661 26.4306 123.648 26.2208 122.721 25.7939C121.917 25.4202 121.228 24.8394 120.727 24.1119C120.239 23.3899 119.986 22.5369 120.001 21.6676C119.946 20.7429 120.243 19.8314 120.835 19.1155C121.399 18.4941 122.312 18.0467 123.572 17.7649C125.229 17.4499 126.915 17.3111 128.602 17.3506H130.204V19.6914H128.631C127.794 19.6767 126.957 19.7322 126.129 19.8571C125.634 19.9154 125.166 20.1139 124.781 20.4289C124.641 20.5674 124.531 20.7338 124.459 20.9172C124.387 21.1006 124.355 21.297 124.364 21.4936C124.358 21.7475 124.408 21.9997 124.509 22.2328C124.611 22.466 124.762 22.6745 124.952 22.8442C125.419 23.2284 126.016 23.421 126.621 23.3828C127.17 23.3918 127.712 23.2575 128.193 22.9933C128.65 22.742 129.027 22.3689 129.282 21.9162C129.554 21.4065 129.689 20.8357 129.674 20.259V16.8369C129.674 15.9586 129.47 15.333 129.069 14.9602C128.669 14.5873 127.972 14.405 126.984 14.405C126.399 14.4119 125.817 14.473 125.244 14.5873C124.528 14.7349 123.829 14.9557 123.159 15.246C122.787 15.4212 122.366 15.4636 121.966 15.3662C121.644 15.2745 121.369 15.066 121.194 14.782C121.014 14.4892 120.92 14.1518 120.923 13.8084C120.924 13.446 121.028 13.0912 121.223 12.7851C121.47 12.4334 121.833 12.1784 122.249 12.0643C123.105 11.7278 123.99 11.4726 124.894 11.302C125.646 11.1598 126.41 11.0835 127.175 11.0741C128.493 11.0326 129.806 11.2625 131.03 11.7494C132.002 12.1602 132.802 12.8919 133.294 13.8209C133.828 14.9344 134.083 16.1596 134.037 17.3921V24.0871C134.08 24.7026 133.879 25.3105 133.478 25.7815C133.275 25.9829 133.031 26.1395 132.763 26.2409C132.495 26.3422 132.209 26.3862 131.922 26.3698C131.628 26.3824 131.335 26.3331 131.062 26.2253C130.789 26.1175 130.542 25.9536 130.337 25.7442C129.936 25.2732 129.735 24.6653 129.778 24.0498V22.9395L129.991 23.1507C129.886 23.7775 129.62 24.3668 129.219 24.8618C128.822 25.3455 128.316 25.73 127.743 25.9845C127.095 26.2721 126.392 26.4163 125.682 26.4071Z" fill="#212121"/>
<path d="M138.312 26.3489C138.005 26.377 137.695 26.337 137.405 26.2317C137.115 26.1265 136.852 25.9586 136.636 25.7402C136.419 25.5218 136.254 25.2583 136.152 24.9688C136.05 24.6794 136.015 24.371 136.047 24.0662V6.98901C136.023 6.67776 136.065 6.36494 136.169 6.0704C136.273 5.77587 136.438 5.50602 136.652 5.27798C137.111 4.87794 137.711 4.67398 138.321 4.7104C138.944 4.66877 139.558 4.8727 140.031 5.27798C140.24 5.50877 140.401 5.77943 140.502 6.07355C140.603 6.36767 140.643 6.67912 140.619 6.98901V17.4955H140.677L145.061 12.6607C145.414 12.2283 145.819 11.8402 146.267 11.5048C146.722 11.2324 147.25 11.1024 147.781 11.1319C148.042 11.1114 148.305 11.1433 148.554 11.2259C148.802 11.3085 149.032 11.44 149.228 11.6125C149.385 11.7619 149.511 11.9412 149.597 12.1398C149.683 12.3384 149.728 12.5522 149.728 12.7684C149.709 13.2879 149.5 13.7827 149.14 14.1604L144.519 19.2355V17.5245L149.658 23.4074C149.831 23.5975 149.964 23.82 150.049 24.0619C150.134 24.3038 150.17 24.5602 150.154 24.816C150.135 25.0355 150.068 25.2483 149.959 25.4399C149.849 25.6315 149.7 25.7974 149.52 25.9263C149.122 26.2129 148.639 26.3588 148.148 26.3406C147.574 26.3686 147.004 26.2381 146.5 25.9636C146.02 25.6517 145.597 25.2608 145.249 24.8077L140.686 19.7368H140.627V24.0869C140.616 25.5949 139.844 26.3489 138.312 26.3489Z" fill="#212121"/>
<path d="M0.442105 28.0926L12.2396 16.3746L17.6901 21.7883L9.23127 30.1901C8.06575 31.3478 6.48498 31.9981 4.83669 31.9981C3.1884 31.9981 1.60763 31.3478 0.442114 30.1901C0.162078 29.912 0.00475624 29.5347 0.00475627 29.1414C0.0047563 28.748 0.162069 28.3708 0.442105 28.0926Z" fill="#03A242"/>
<path d="M28.2631 0.472319L6.74463 21.8457C7.82226 24.3268 9.48502 26.5141 11.5926 28.2228C13.7001 29.9315 16.1906 31.1115 18.8537 31.6633C21.5169 32.2151 24.2747 32.1224 26.8942 31.3931C29.5138 30.6638 31.9182 29.3193 33.9047 27.473C35.8911 25.6267 37.4013 23.3328 38.3076 20.785C39.2139 18.2372 39.4899 15.5103 39.1121 12.8343C38.7344 10.1583 37.7141 7.61179 36.1373 5.40978C34.5605 3.20776 32.4735 1.41483 30.0525 0.182309C29.7616 0.0369454 29.4318 -0.0132819 29.1104 0.0388085C28.789 0.0908989 28.4924 0.242642 28.2631 0.472319Z" fill="#00C35E"/>
<path d="M23.5998 13.4895C24.3231 13.4895 24.9095 12.907 24.9095 12.1886C24.9095 11.4701 24.3231 10.8877 23.5998 10.8877C22.8764 10.8877 22.29 11.4701 22.29 12.1886C22.29 12.907 22.8764 13.4895 23.5998 13.4895Z" fill="#212121"/>
<path d="M34.4738 13.4895C35.1971 13.4895 35.7835 12.907 35.7835 12.1886C35.7835 11.4701 35.1971 10.8877 34.4738 10.8877C33.7504 10.8877 33.1641 11.4701 33.1641 12.1886C33.1641 12.907 33.7504 13.4895 34.4738 13.4895Z" fill="#212121"/>
<path d="M29.7271 18.915L32.4001 16.3999H25.6001L28.273 18.915C28.4708 19.0981 28.7305 19.1999 29.0001 19.1999C29.2698 19.1999 29.5294 19.0981 29.7271 18.915Z" fill="#B04121"/>
<path d="M28.2794 14.2381L25.6001 16.4H32.4001L29.7208 14.2381C29.5236 14.0849 29.2666 14 29.0001 14C28.7336 14 28.4766 14.0849 28.2794 14.2381Z" fill="#C84E29"/>
</g>
</g>
<defs>
<clipPath id="clip0_475_3188">
<rect width="150" height="32" fill="white"/>
</clipPath>
<clipPath id="clip1_475_3188">
<rect width="150.154" height="32" fill="white"/>
</clipPath>
</defs>
</svg>
