<svg width="40" height="32" viewBox="0 0 40 32" fill="none" xmlns="http://www.w3.org/2000/svg">
<path d="M1.05498 28.05L12.8425 16.342L18.2883 21.7511L9.83665 30.1458C8.67213 31.3024 7.0927 31.9523 5.44582 31.9523C3.79894 31.9523 2.21951 31.3024 1.05498 30.1458C0.775187 29.8679 0.617999 29.4909 0.617999 29.0979C0.617999 28.7049 0.775178 28.3279 1.05498 28.05Z" fill="#03A242"/>
<path d="M28.8522 0.453134L7.35208 21.8083C8.42879 24.2873 10.0901 26.4727 12.1959 28.18C14.3016 29.8872 16.79 31.0663 19.4509 31.6176C22.1118 32.1689 24.8672 32.0763 27.4845 31.3476C30.1019 30.6189 32.5043 29.2755 34.489 27.4308C36.4738 25.5861 37.9826 23.2942 38.8882 20.7486C39.7937 18.2029 40.0694 15.4783 39.692 12.8045C39.3146 10.1308 38.2952 7.58652 36.7197 5.38639C35.1443 3.18625 33.0591 1.39484 30.6401 0.163371C30.3494 0.0181311 30.02 -0.0320534 29.6988 0.0199926C29.3777 0.0720387 29.0814 0.223653 28.8522 0.453134Z" fill="#00C35E"/>
<path d="M24.193 13.4592C24.9157 13.4592 25.5016 12.8772 25.5016 12.1594C25.5016 11.4415 24.9157 10.8596 24.193 10.8596C23.4703 10.8596 22.8844 11.4415 22.8844 12.1594C22.8844 12.8772 23.4703 13.4592 24.193 13.4592Z" fill="#212121"/>
<path d="M35.0576 13.4592C35.7804 13.4592 36.3662 12.8772 36.3662 12.1594C36.3662 11.4415 35.7804 10.8596 35.0576 10.8596C34.3349 10.8596 33.7491 11.4415 33.7491 12.1594C33.7491 12.8772 34.3349 13.4592 35.0576 13.4592Z" fill="#212121"/>
<path d="M30.315 18.8801L32.9856 16.3672H26.1914L28.8621 18.8801C29.0596 19.0631 29.3191 19.1648 29.5886 19.1648C29.858 19.1648 30.1174 19.0631 30.315 18.8801Z" fill="#B04121"/>
<path d="M28.8684 14.2071L26.1914 16.3672H32.9856L30.3087 14.2071C30.1116 14.0541 29.8548 13.9692 29.5885 13.9692C29.3222 13.9692 29.0655 14.0541 28.8684 14.2071Z" fill="#C84E29"/>
</svg>
