<svg width="24" height="24" viewBox="0 0 24 24" fill="none" xmlns="http://www.w3.org/2000/svg">
<path fill-rule="evenodd" clip-rule="evenodd" d="M13.4857 13.4857C15.2635 11.7078 15.2635 8.82537 13.4857 7.04752C11.7078 5.26968 8.82535 5.26968 7.04751 7.04752C5.26966 8.82537 5.26966 11.7078 7.04751 13.4857C8.82535 15.2635 11.7078 15.2635 13.4857 13.4857ZM14.8999 14.8999C17.4588 12.341 17.4588 8.19221 14.8999 5.63331C12.341 3.07441 8.19219 3.07441 5.63329 5.63331C3.0744 8.19221 3.0744 12.341 5.63329 14.8999C8.19219 17.4588 12.341 17.4588 14.8999 14.8999Z" fill="#757575"/>
<path fill-rule="evenodd" clip-rule="evenodd" d="M14.0624 14.1927C14.4529 13.8022 15.0861 13.8022 15.4766 14.1927L21.707 20.423C22.0975 20.8136 22.0975 21.4467 21.707 21.8372C21.3164 22.2278 20.6833 22.2278 20.2928 21.8372L14.0624 15.6069C13.6719 15.2164 13.6719 14.5832 14.0624 14.1927Z" fill="#757575"/>
</svg>
